<?xml version="1.0" encoding="UTF-8"?>
<svg id="Capa_2" data-name="Capa 2" xmlns="http://www.w3.org/2000/svg" viewBox="0 0 714.28 321.81">
  <defs>
    <style>
      .cls-1 {
        fill: blue;
        stroke-width: 0px;
      }
    </style>
  </defs>
  <g id="Capa_2-2" data-name="Capa 2">
    <path class="cls-1" d="M29.28,58c20.19-2.88,34,2,40,6s20,19,31,74,18,89,24,89,15.74-32.19,27.37-85.6,22.63-56.4,44.63-55.4,38.34,7.81,45.67,55.4,20.9,85.6,26.61,85.6,16.72-46,20.72-74,13-75,28-87,40-11,51.5-1.5,11.5,19.5,9.5,26.5-23,36-26,47-16,44-23,76-23,88-37,97-42,8-55-9-24-71-28-91-6.5-39.44-14-39c-8.5.5-16,38-19,62s-14.5,61.5-28,74c-8.2,7.6-48,21-63-9s-36-111-41-128-19-53-28-64S-1.72,89,.28,81s8-20,29-23Z"/>
    <path class="cls-1" d="M627.28,280c-3-6-8-11-10-10s-15,5-21-5-9-26-9-43,.6-80.96,0-90c-1-15-5-44-27-59s-62-23-94-18-63,25-69,41-3.65,23.31,0,30c6,11,17,14,27,12s35-19,47-24,36-9,48,5,8,27,3,33-29,14-69,20-72,22-83,50-9,58,15,78,54,26,80,19,58.76-31.17,61.88-32.08c3.12-.92,6.12,1.08,8.12,4.08s8,18,28,25,44-3,54-11,13-19,10-25ZM530.28,212c-.7,11.98-4,20-16,35s-35,26-52,25-24.96-8.54-29-15c-5-8-5.91-18.28-3.5-25.5,3-9,10-13,19-16,9.34-3.11,25-4,41-15,16.99-11.68,27.32-8.67,32-6,7,4,9,9,8.5,17.5Z"/>
    <path class="cls-1" d="M651.28,98c5.28-6.79,16-8,27-8s21,3,28,11,7,17,7,59,0,86,0,94,1,29.57,1,40.13-8,19.87-20,21.87c-10.06,1.68-25,2-34-4s-14-14-14-21,.88-130,1-134c1-33-3-50,4-59Z"/>
    <circle class="cls-1" cx="677.78" cy="36.5" r="36.5"/>
  </g>
</svg>